<?xml version="1.0" standalone="no"?>
<!DOCTYPE svg PUBLIC "-//W3C//DTD SVG 20010904//EN"
 "http://www.w3.org/TR/2001/REC-SVG-20010904/DTD/svg10.dtd">
<svg version="1.0" xmlns="http://www.w3.org/2000/svg"
 width="864.000000pt" height="864.000000pt" viewBox="0 0 864.000000 864.000000"
 preserveAspectRatio="xMidYMid meet">
<metadata>
Created by potrace 1.14, written by Peter Selinger 2001-2017
</metadata>
<g transform="translate(0.000000,864.000000) scale(0.100000,-0.100000)"
fill="#000000" stroke="none">
<path d="M2029 8416 c-2 -2 -24 -5 -49 -7 -25 -1 -53 -6 -62 -11 -12 -6 -18
-5 -18 2 0 6 -4 9 -8 6 -8 -5 -23 -8 -97 -22 -16 -3 -50 -10 -75 -15 -25 -6
-55 -13 -68 -15 -31 -6 -219 -69 -264 -88 -21 -9 -40 -16 -43 -16 -2 -1 -46
-22 -97 -49 -139 -72 -207 -115 -339 -214 -70 -52 -191 -166 -279 -263 -106
-116 -266 -344 -307 -436 -9 -21 -20 -38 -25 -38 -4 0 -8 -4 -8 -10 0 -9 -50
-123 -72 -164 -11 -20 -46 -113 -78 -206 -17 -51 -55 -188 -65 -235 -21 -97
-36 -178 -41 -215 -2 -25 -8 -67 -11 -95 -9 -66 -9 -651 0 -735 4 -36 9 -92
12 -124 5 -57 38 -264 50 -316 3 -14 8 -34 9 -45 8 -49 28 -126 58 -225 36
-117 78 -191 146 -258 35 -35 67 -61 70 -58 3 3 12 0 20 -6 8 -7 49 -14 91
-15 78 -2 144 10 216 42 22 9 45 18 50 19 10 2 86 42 117 61 9 5 37 21 62 34
25 14 46 28 46 33 0 4 3 7 8 6 6 -2 88 47 117 69 38 30 166 113 174 113 6 0
14 6 18 13 10 15 346 241 393 263 8 4 17 10 20 14 6 6 130 81 205 122 146 81
455 219 518 232 7 2 19 6 27 9 22 10 209 55 255 62 77 12 101 15 175 21 41 3
80 5 85 5 8 1 212 -11 253 -13 6 -1 12 -4 12 -7 0 -3 16 -7 36 -8 20 -1 34 0
33 2 -4 3 -155 56 -173 60 -6 1 -18 5 -26 8 -12 5 -108 33 -180 51 -46 12
-206 47 -238 52 -20 3 -44 7 -52 9 -8 2 -42 7 -75 11 -33 4 -73 9 -90 11 -46
8 -464 7 -520 0 -136 -19 -226 -37 -340 -68 -38 -11 -79 -24 -90 -28 -11 -5
-54 -21 -95 -36 -96 -36 -297 -135 -422 -208 -185 -109 -263 -137 -318 -113
-31 14 -51 32 -43 40 4 3 1 6 -5 6 -8 0 -30 46 -38 83 -1 4 -2 8 -3 10 -8 9
-30 170 -25 178 3 5 2 9 -3 9 -9 0 -15 94 -16 265 -1 113 4 187 19 280 15 97
92 285 135 331 10 11 19 23 19 27 0 11 84 89 131 123 90 63 244 118 369 132
135 15 394 3 530 -24 19 -3 44 -8 55 -10 11 -1 31 -6 45 -9 14 -3 39 -9 55
-12 38 -7 47 -9 65 -15 8 -3 62 -18 120 -33 101 -27 179 -50 210 -62 8 -3 20
-7 26 -8 15 -4 134 -44 159 -55 11 -4 36 -13 55 -20 19 -7 49 -18 65 -25 17
-7 41 -16 55 -20 26 -8 103 -40 132 -56 10 -5 22 -9 28 -9 5 0 38 -13 72 -29
35 -15 80 -34 101 -42 20 -7 37 -16 37 -19 0 -4 6 -7 13 -7 12 0 63 -23 235
-104 46 -21 87 -39 93 -39 5 0 9 -4 9 -8 0 -5 6 -9 13 -9 7 0 165 -76 352
-170 445 -223 509 -256 513 -265 2 -5 10 -8 18 -8 7 0 30 -10 51 -22 58 -33
111 -58 123 -58 5 0 10 -4 10 -9 0 -5 10 -11 22 -14 36 -10 19 -14 -77 -21
-118 -8 -232 -36 -358 -88 -56 -22 -104 -44 -107 -47 -3 -3 -23 -15 -45 -26
-79 -40 -242 -159 -351 -257 -60 -54 -214 -210 -294 -298 -121 -133 -129 -143
-250 -285 -47 -55 -87 -102 -90 -105 -3 -3 -20 -23 -39 -45 -102 -121 -306
-340 -381 -411 -104 -97 -128 -119 -160 -143 -19 -14 -39 -31 -45 -37 -18 -19
-136 -105 -161 -116 -13 -6 -24 -14 -24 -17 0 -3 -26 -19 -58 -36 -31 -16 -59
-32 -62 -35 -11 -11 -73 -40 -86 -40 -8 0 -14 -4 -14 -10 0 -5 -8 -10 -18 -10
-10 0 -22 -3 -26 -7 -4 -5 -11 -8 -14 -9 -4 0 -20 -6 -37 -13 -45 -19 -245
-69 -306 -76 -126 -16 -298 -12 -449 10 -67 9 -299 71 -361 96 -30 11 -58 22
-64 24 -12 2 -42 15 -119 49 -32 14 -60 26 -61 26 -1 0 0 -11 3 -25 2 -14 9
-25 15 -25 6 0 8 -3 5 -6 -4 -3 7 -42 23 -87 52 -141 80 -222 83 -232 2 -5 6
-17 9 -25 4 -8 27 -73 52 -145 25 -71 48 -137 52 -145 3 -8 7 -22 9 -30 2 -8
10 -30 18 -50 8 -19 33 -87 56 -150 22 -63 47 -130 55 -148 8 -18 15 -37 15
-43 0 -6 6 -25 14 -42 8 -18 26 -63 41 -102 15 -38 32 -81 38 -95 5 -14 11
-32 13 -40 2 -8 7 -23 13 -35 6 -11 32 -72 59 -135 89 -208 369 -784 441 -905
9 -16 31 -55 47 -85 16 -30 32 -57 35 -60 3 -3 19 -28 35 -57 16 -28 44 -78
63 -110 45 -77 264 -402 290 -430 12 -12 21 -25 21 -28 0 -16 149 -195 223
-268 67 -65 101 -79 122 -51 8 11 32 75 55 144 22 69 44 132 47 140 3 8 7 20
8 25 2 6 14 46 28 90 35 112 68 223 72 243 2 9 4 18 5 20 2 1 3 5 4 10 2 7 33
109 62 207 8 28 16 57 18 65 1 8 11 41 20 74 10 32 20 66 21 75 2 9 4 17 5 19
3 2 4 7 14 47 4 17 12 41 17 55 5 14 11 35 13 46 5 23 54 197 64 224 3 8 6 20
8 27 1 7 12 44 24 82 12 39 21 72 20 73 -1 2 4 17 10 33 7 17 13 37 15 45 2 8
13 44 25 80 12 36 23 72 25 80 2 8 17 56 35 105 17 50 32 95 34 100 12 43 39
121 60 180 15 39 28 76 31 83 2 7 4 14 5 17 0 3 6 18 14 34 9 16 12 31 9 35
-4 3 -1 6 5 6 7 0 12 6 12 14 0 16 48 131 108 256 14 30 27 57 27 60 4 15 52
108 67 129 10 13 15 28 12 33 -3 4 -1 8 5 8 5 0 13 10 17 23 4 12 10 24 14 27
3 3 21 31 40 64 117 207 336 436 511 535 58 32 179 83 179 75 0 -3 9 0 19 6
11 5 37 13 58 16 21 3 56 9 78 13 45 8 238 6 300 -4 22 -3 58 -11 80 -17 22
-6 45 -12 50 -14 112 -25 320 -156 435 -274 50 -51 150 -167 150 -174 0 -4 9
-16 19 -27 35 -38 160 -247 225 -376 55 -111 133 -290 176 -403 7 -19 19 -48
26 -65 47 -110 273 -830 299 -955 2 -8 4 -15 5 -15 1 0 3 -7 5 -15 2 -8 10
-40 19 -70 25 -91 48 -174 51 -190 4 -18 71 -261 85 -310 11 -40 49 -177 55
-200 41 -165 174 -563 199 -594 18 -24 28 -28 49 -22 51 13 163 141 317 366
19 28 41 58 48 65 6 7 12 18 12 24 0 6 3 11 8 11 4 0 12 9 17 19 6 11 40 64
77 119 63 95 258 418 258 428 0 2 11 22 25 44 14 22 25 46 25 54 0 8 4 16 8
18 5 2 25 35 44 73 57 112 83 160 88 165 3 3 6 10 7 15 1 6 44 98 96 205 106
221 118 247 194 420 30 69 61 140 70 159 8 18 16 39 17 45 1 6 5 16 8 22 4 6
36 82 71 170 35 87 67 168 72 179 4 11 9 25 10 30 2 6 18 51 38 100 19 50 47
124 62 165 15 41 35 98 45 125 11 28 47 136 81 240 34 105 65 199 70 210 8 21
60 190 63 209 1 6 11 38 21 71 11 33 20 65 21 70 0 6 4 17 7 25 10 24 96 351
103 390 3 14 10 43 16 65 6 22 13 48 15 58 2 9 5 27 7 40 3 12 5 22 7 22 1 0
3 9 4 20 1 11 10 49 18 85 9 36 21 90 27 120 5 30 13 66 15 80 7 34 44 247 51
290 3 19 7 46 10 60 3 14 6 36 8 50 5 45 16 134 22 175 3 22 7 58 9 80 1 22 7
81 11 130 16 176 10 533 -10 685 -19 132 -81 393 -113 470 -3 8 -7 20 -8 25
-6 23 -67 172 -81 198 -8 15 -12 27 -7 27 4 0 4 4 -2 8 -5 4 -30 48 -55 97
-25 50 -48 92 -52 93 -5 2 -8 10 -8 17 0 7 -3 15 -7 17 -5 2 -17 19 -27 38
-27 47 -146 214 -157 218 -5 2 -9 7 -9 12 0 10 -57 74 -146 164 -95 95 -134
130 -229 201 -44 33 -86 66 -93 73 -7 6 -19 12 -27 12 -7 0 -15 4 -17 9 -6 16
-292 166 -338 177 -8 2 -52 16 -96 33 -81 29 -222 65 -299 76 -22 4 -51 8 -65
11 -135 26 -437 26 -560 -1 -14 -2 -34 -7 -45 -9 -64 -13 -122 -30 -132 -39
-7 -5 -13 -7 -13 -4 0 5 -150 -42 -190 -60 -8 -3 -17 -7 -20 -8 -3 -1 -22 -9
-44 -18 -21 -9 -40 -17 -42 -17 -2 0 -37 -15 -77 -34 -40 -18 -84 -37 -97 -41
-14 -4 -27 -11 -30 -15 -3 -4 -48 -28 -100 -53 -212 -104 -537 -286 -616 -346
-27 -20 -49 -43 -49 -51 0 -21 90 -64 254 -119 82 -28 157 -52 167 -54 11 -2
26 -7 34 -10 8 -3 44 -14 80 -23 68 -17 86 -21 134 -30 16 -2 32 -7 36 -9 4
-3 25 -7 46 -10 51 -8 67 -11 140 -24 34 -6 79 -13 100 -16 22 -2 55 -6 74 -9
95 -15 218 -27 410 -41 58 -4 285 -14 435 -20 129 -4 127 -4 120 -15 -7 -11
-87 -46 -94 -41 -2 1 -7 -2 -10 -7 -5 -8 -217 -87 -263 -98 -10 -2 -27 -6 -38
-9 -11 -3 -29 -7 -40 -10 -36 -9 -64 -15 -125 -26 -33 -5 -71 -12 -85 -15
-138 -26 -541 -25 -682 1 -9 2 -38 7 -65 11 -26 3 -77 13 -113 21 -36 7 -76
16 -88 19 -13 2 -49 12 -80 20 -32 9 -70 19 -87 24 -112 30 -360 120 -481 175
-33 15 -68 30 -79 35 -30 12 -335 164 -375 187 -19 11 -62 35 -95 53 -71 39
-395 228 -480 280 -33 20 -80 48 -105 62 -25 14 -63 35 -85 48 -51 29 -236
121 -295 148 -122 53 -268 112 -281 112 -4 0 -20 5 -36 12 -15 6 -32 10 -37 9
-4 -1 -13 3 -20 8 -6 5 -23 12 -36 14 -14 2 -32 6 -40 10 -18 6 -91 23 -140
32 -19 4 -46 9 -60 11 -35 7 -345 15 -351 10z"/>
</g>
</svg>
